<svg id="visual" viewBox="0 0 960 540" width="960" height="540" xmlns="http://www.w3.org/2000/svg" xmlns:xlink="http://www.w3.org/1999/xlink" version="1.1"><rect x="0" y="0" width="960" height="540" fill="#1a1a1a"></rect><path d="M0 494L22.8 496.8C45.7 499.7 91.3 505.3 137 499.3C182.7 493.3 228.3 475.7 274 467.7C319.7 459.7 365.3 461.3 411.2 469.3C457 477.3 503 491.7 548.8 497C594.7 502.3 640.3 498.7 686 493.8C731.7 489 777.3 483 823 481.5C868.7 480 914.3 483 937.2 484.5L960 486L960 541L937.2 541C914.3 541 868.7 541 823 541C777.3 541 731.7 541 686 541C640.3 541 594.7 541 548.8 541C503 541 457 541 411.2 541C365.3 541 319.7 541 274 541C228.3 541 182.7 541 137 541C91.3 541 45.7 541 22.8 541L0 541Z" fill="#FFE4C4" stroke-linecap="round" stroke-linejoin="miter"></path></svg>